<svg width="64" height="64" viewBox="0 0 64 64" fill="none" xmlns="http://www.w3.org/2000/svg">
<path d="M0 31.9976C0 14.3258 14.3258 0 31.9976 0C49.6694 0 63.9953 14.3258 63.9953 31.9976C63.9953 49.6694 49.6694 63.9953 31.9976 63.9953C14.3258 63.9953 0 49.6694 0 31.9976Z" fill="#FFF5F0"/>
<path d="M7.99561 31.9976C7.99561 18.7445 18.7394 8.00073 31.9925 8.00073C45.2456 8.00073 55.9894 18.7445 55.9894 31.9976C55.9894 45.2508 45.2456 55.9946 31.9925 55.9946C18.7394 55.9946 7.99561 45.2508 7.99561 31.9976Z" fill="#FF6129"/>
<path d="M41.3258 24.9977L28.4925 37.831L22.6592 31.9977" stroke="white" stroke-width="3.49999" stroke-linecap="round" stroke-linejoin="round"/>
</svg>
