<svg width="64" height="64" viewBox="0 0 64 64" fill="none" xmlns="http://www.w3.org/2000/svg">
<path d="M0 31.9976C0 14.3258 14.3258 0 31.9976 0C49.6694 0 63.9953 14.3258 63.9953 31.9976C63.9953 49.6694 49.6694 63.9953 31.9976 63.9953C14.3258 63.9953 0 49.6694 0 31.9976Z" fill="#FFF4F0"/>
<path d="M31.9976 45.3278C39.3597 45.3278 45.3278 39.3597 45.3278 31.9976C45.3278 24.6356 39.3597 18.6675 31.9976 18.6675C24.6356 18.6675 18.6675 24.6356 18.6675 31.9976C18.6675 39.3597 24.6356 45.3278 31.9976 45.3278Z" stroke="#FF6129" stroke-width="2.66603" stroke-linecap="round" stroke-linejoin="round"/>
<path d="M27.9985 31.9976L30.6646 34.6636L35.9966 29.3315" stroke="#FF6129" stroke-width="2.66603" stroke-linecap="round" stroke-linejoin="round"/>
</svg>
