<svg width="20" height="20" viewBox="0 0 20 20" fill="none" xmlns="http://www.w3.org/2000/svg">
<path d="M4.99868 18.3277C4.55679 18.3277 4.13299 18.1522 3.82053 17.8397C3.50806 17.5273 3.33252 17.1035 3.33252 16.6616V3.3323C3.33252 2.89041 3.50806 2.46661 3.82053 2.15415C4.13299 1.84168 4.55679 1.66614 4.99868 1.66614H11.6633C11.927 1.66571 12.1882 1.71746 12.4319 1.8184C12.6755 1.91934 12.8967 2.06748 13.0829 2.25429L16.072 5.24339C16.2593 5.42958 16.4079 5.65105 16.5091 5.89499C16.6103 6.13893 16.6622 6.40051 16.6618 6.66462V16.6616C16.6618 17.1035 16.4863 17.5273 16.1738 17.8397C15.8613 18.1522 15.4375 18.3277 14.9956 18.3277H4.99868Z" stroke="#364153" stroke-width="1.66616" stroke-linecap="round" stroke-linejoin="round"/>
<path d="M11.6631 1.66614V5.83154C11.6631 6.05248 11.7509 6.26438 11.9071 6.42061C12.0633 6.57685 12.2752 6.66462 12.4962 6.66462H16.6616" stroke="#364153" stroke-width="1.66616" stroke-linecap="round" stroke-linejoin="round"/>
<path d="M8.33071 7.49774H6.66455" stroke="#364153" stroke-width="1.66616" stroke-linecap="round" stroke-linejoin="round"/>
<path d="M13.3292 10.83H6.66455" stroke="#364153" stroke-width="1.66616" stroke-linecap="round" stroke-linejoin="round"/>
<path d="M13.3292 14.1624H6.66455" stroke="#364153" stroke-width="1.66616" stroke-linecap="round" stroke-linejoin="round"/>
</svg>
