<svg width="16" height="16" viewBox="0 0 16 16" fill="none" xmlns="http://www.w3.org/2000/svg">
<g clip-path="url(#clip0_58274_2833)">
<path d="M6.66438 13.3292C6.66433 13.453 6.69878 13.5745 6.76388 13.6798C6.82898 13.7852 6.92215 13.8703 7.03293 13.9257L8.36584 14.5921C8.46747 14.6429 8.5804 14.6669 8.69389 14.6617C8.80739 14.6566 8.91769 14.6225 9.01432 14.5628C9.11094 14.503 9.19068 14.4195 9.24597 14.3203C9.30125 14.221 9.33025 14.1093 9.33019 13.9957V9.33049C9.33034 9.00018 9.45313 8.6817 9.67475 8.43677L14.4885 3.11249C14.5748 3.01689 14.6315 2.89834 14.6519 2.77119C14.6722 2.64403 14.6553 2.5137 14.6031 2.39597C14.5509 2.27823 14.4658 2.17814 14.3579 2.10778C14.2501 2.03742 14.1241 1.99982 13.9954 1.99951H1.99922C1.87033 1.99956 1.74422 2.03698 1.63617 2.10723C1.52812 2.17749 1.44275 2.27758 1.39042 2.39536C1.33809 2.51314 1.32103 2.64358 1.34131 2.77086C1.3616 2.89814 1.41836 3.01681 1.50471 3.11249L6.31983 8.43677C6.54145 8.6817 6.66424 9.00018 6.66438 9.33049V13.3292Z" stroke="#6A7282" stroke-width="1.3329" stroke-linecap="round" stroke-linejoin="round"/>
</g>
<defs>
<clipPath id="clip0_58274_2833">
<rect width="15.9949" height="15.9949" fill="white"/>
</clipPath>
</defs>
</svg>
