<svg width="28" height="28" viewBox="0 0 28 28" fill="none" xmlns="http://www.w3.org/2000/svg">
<g transform="translate(0, 2)">
<path d="M25.7006 15.51C27.5092 15.9557 28.4211 18.1697 27.7779 19.8469C26.9403 22.0292 24.2432 22.7766 22.1468 22.1328C20.6426 23.5768 18.2117 24.0007 16.4172 22.8368C15.2836 23.6947 13.8879 23.9614 12.5172 23.5425C12.2453 23.4597 11.4503 22.989 11.3343 22.9873C11.1966 22.9857 10.5426 23.3093 10.2648 23.3686C8.96757 23.647 7.61275 23.484 6.49159 22.7491C6.32391 22.6395 5.85837 22.198 5.72656 22.1796C5.52718 22.1521 5.01497 22.336 4.74969 22.3569C3.09707 22.4857 1.32766 21.8803 0.455058 20.4038C-0.582726 18.6471 0.214799 16.1237 2.23448 15.5519L2.28119 15.4824L3.75361 4.80036C4.46688 0.142416 9.70672 0.0654955 13.4149 0.00947669C15.3795 -0.0206231 17.5026 -0.0105903 19.4155 0.532878C23.3372 1.64741 23.4982 4.71257 24.2257 8.159C24.7421 10.6038 25.1467 13.0736 25.7006 15.51ZM13.1404 1.93419C12.1577 1.97349 11.1082 2.03118 10.1463 2.23352C9.51981 2.36479 8.44783 2.65826 9.68585 3.04621C11.4211 3.58968 16.6517 3.47597 18.4578 3.03702C19.9052 2.68501 19.116 2.34054 18.19 2.16579C16.6759 1.87985 14.6887 1.87232 13.1404 1.93419ZM19.4872 5.74598C19.2537 5.82207 19.2661 6.60299 19.2753 6.80867C19.3579 8.5871 19.7909 10.7384 20.0187 12.5477C20.1755 13.7918 20.2531 15.056 20.4383 16.2951C20.7161 18.1513 21.441 20.2901 23.7452 20.0317C24.224 19.9782 25.0958 19.622 25.1558 19.0668C25.2243 18.4389 24.4251 18.6229 24.0472 18.5836C22.6081 18.4322 22.1968 17.2257 21.9499 15.9958C21.3893 13.2066 21.1407 10.317 20.5059 7.54281C20.3982 7.07125 20.2797 6.52188 20.0345 6.1047C19.9177 5.90484 19.7717 5.65234 19.4864 5.74518L19.4872 5.74598ZM2.88351 18.7207C2.5081 19.4481 3.48416 19.9447 4.06896 20.0233C6.18539 20.3101 7.11889 18.8996 7.37501 16.9983C7.56689 15.5778 7.5894 14.0377 7.7229 12.5995C7.88224 10.878 8.16255 9.04027 8.2418 7.32956C8.25511 7.03861 8.29515 5.90404 7.97067 5.80538C7.52098 5.66908 7.25071 6.6841 7.17146 7.01019C6.47738 9.85878 6.37225 13.2417 5.86423 16.1789C5.64901 17.4222 5.30112 18.4281 3.87958 18.5902C3.54673 18.6279 3.19802 18.5217 2.88351 18.7207ZM11.9191 6.32958C11.5478 6.36302 11.3551 7.37723 11.3101 7.68493C10.8287 10.9926 10.9889 14.5744 10.5952 17.9113C10.4583 18.5919 10.1238 19.3661 9.46809 19.6763C9.06515 19.8678 7.70203 20.0008 8.2418 20.7624C8.74231 21.469 10.3057 21.1312 10.9522 20.7574C12.6073 19.8009 12.2461 17.8587 12.2828 16.2441C12.3403 13.74 12.3396 11.23 12.3403 8.71754C12.3403 8.14727 12.4038 7.58462 12.3362 6.98928C12.312 6.77608 12.2002 6.30367 11.9182 6.32958H11.9191ZM15.8508 6.39229C15.3912 6.01021 15.2519 6.79112 15.2293 7.09631C15.1208 8.55111 15.347 10.205 15.4079 11.6698C15.4604 12.9432 15.518 14.2191 15.5814 15.4908C15.6815 17.5134 15.2643 20.6813 17.9356 21.1212C18.4945 21.2131 19.8484 21.1588 19.6791 20.3001C19.6065 19.9339 18.8766 19.8285 18.5704 19.6747C17.6469 19.2098 17.3833 18.2374 17.2549 17.2876C16.8569 14.3495 16.7851 11.3203 16.3806 8.37972C16.3263 7.98425 16.1311 6.62389 15.8516 6.39229H15.8508Z" fill="white"/>
</g>
</svg>
