<svg width="64" height="64" viewBox="0 0 64 64" fill="none" xmlns="http://www.w3.org/2000/svg">
<rect width="63.9953" height="63.9953" rx="31.9976" fill="#FEE500"/>
<g clip-path="url(#clip0_58310_638)">
<path d="M31.9972 16.001C23.1627 16.001 16.001 22.2682 16.001 29.9976C16.001 33.7156 17.5881 37.1022 20.2219 39.6141L19.0877 44.388C19.0184 44.8379 19.1221 45.3128 19.4658 45.6189C19.697 45.8252 19.9907 45.9376 20.2906 45.9376C20.4124 45.9376 20.5343 45.9188 20.653 45.8814L26.9078 43.5382C28.5011 44.0881 30.2132 44.388 31.9972 44.388C40.8317 44.388 47.9934 38.1207 47.9934 29.9976C47.9934 22.2682 40.8317 16.001 31.9972 16.001Z" fill="#191919"/>
</g>
<defs>
<clipPath id="clip0_58310_638">
<rect width="31.9924" height="31.9924" fill="white" transform="translate(16.001 16.001)"/>
</clipPath>
</defs>
</svg>
