<svg width="20" height="20" viewBox="0 0 20 20" fill="none" xmlns="http://www.w3.org/2000/svg">
<g clip-path="url(#clip0_54_731)">
<path d="M16.6616 8.33078C16.6616 12.4903 12.0471 16.8224 10.4976 18.1603C10.3532 18.2688 10.1775 18.3275 9.99691 18.3275C9.8163 18.3275 9.64059 18.2688 9.49623 18.1603C7.9467 16.8224 3.33228 12.4903 3.33228 8.33078C3.33228 6.5632 4.03444 4.86803 5.2843 3.61817C6.53417 2.3683 8.22934 1.66614 9.99691 1.66614C11.7645 1.66614 13.4597 2.3683 14.7095 3.61817C15.9594 4.86803 16.6616 6.5632 16.6616 8.33078Z" stroke="#9CA3AF" stroke-width="1.66616" stroke-linecap="round" stroke-linejoin="round"/>
<path d="M9.99692 10.83C11.3772 10.83 12.4962 9.71107 12.4962 8.33078C12.4962 6.95049 11.3772 5.83154 9.99692 5.83154C8.61663 5.83154 7.49768 6.95049 7.49768 8.33078C7.49768 9.71107 8.61663 10.83 9.99692 10.83Z" stroke="#9CA3AF" stroke-width="1.66616" stroke-linecap="round" stroke-linejoin="round"/>
</g>
<defs>
<clipPath id="clip0_54_731">
<rect width="19.9939" height="19.9939" fill="white"/>
</clipPath>
</defs>
</svg>
