<svg width="20" height="20" viewBox="0 0 20 20" fill="none" xmlns="http://www.w3.org/2000/svg">
<path d="M13.3293 17.4947V15.8285C13.3293 14.9447 12.9782 14.0972 12.3532 13.4722C11.7283 12.8473 10.8807 12.4962 9.99694 12.4962H4.99846C4.11467 12.4962 3.26708 12.8473 2.64215 13.4722C2.01722 14.0972 1.66614 14.9447 1.66614 15.8285V17.4947" stroke="currentColor" stroke-width="1.66616" stroke-linecap="round" stroke-linejoin="round"/>
<path d="M13.3292 2.60583C14.0438 2.79109 14.6766 3.20837 15.1284 3.79219C15.5802 4.37601 15.8253 5.09332 15.8253 5.83152C15.8253 6.56972 15.5802 7.28703 15.1284 7.87085C14.6766 8.45467 14.0438 8.87195 13.3292 9.05721" stroke="currentColor" stroke-width="1.66616" stroke-linecap="round" stroke-linejoin="round"/>
<path d="M18.3277 17.4947V15.8285C18.3272 15.0902 18.0814 14.3729 17.6291 13.7894C17.1767 13.2059 16.5434 12.7891 15.8285 12.6045" stroke="currentColor" stroke-width="1.66616" stroke-linecap="round" stroke-linejoin="round"/>
<path d="M7.49772 9.16391C9.33811 9.16391 10.83 7.67198 10.83 5.83159C10.83 3.9912 9.33811 2.49927 7.49772 2.49927C5.65734 2.49927 4.16541 3.9912 4.16541 5.83159C4.16541 7.67198 5.65734 9.16391 7.49772 9.16391Z" stroke="currentColor" stroke-width="1.66616" stroke-linecap="round" stroke-linejoin="round"/>
</svg>
