<svg width="16" height="16" viewBox="0 0 16 16" fill="none" xmlns="http://www.w3.org/2000/svg">
<g clip-path="url(#clip0_245_6115)">
<path d="M10.6606 13.9921V12.6595C10.6606 11.9527 10.3798 11.2748 9.88001 10.775C9.3802 10.2752 8.70231 9.99438 7.99546 9.99438H3.99773C3.29089 9.99438 2.613 10.2752 2.11319 10.775C1.61337 11.2748 1.33258 11.9527 1.33258 12.6595V13.9921" stroke="currentColor" stroke-width="1.33258" stroke-linecap="round" stroke-linejoin="round"/>
<path d="M10.6606 2.08423C11.2321 2.23239 11.7383 2.56613 12.0996 3.03306C12.4609 3.5 12.6569 4.07369 12.6569 4.6641C12.6569 5.2545 12.4609 5.8282 12.0996 6.29513C11.7383 6.76206 11.2321 7.0958 10.6606 7.24397" stroke="currentColor" stroke-width="1.33258" stroke-linecap="round" stroke-linejoin="round"/>
<path d="M14.6583 13.9922V12.6596C14.6579 12.0691 14.4614 11.4954 14.0996 11.0287C13.7378 10.562 13.2312 10.2287 12.6595 10.0811" stroke="currentColor" stroke-width="1.33258" stroke-linecap="round" stroke-linejoin="round"/>
<path d="M5.9966 7.32909C7.46853 7.32909 8.66176 6.13586 8.66176 4.66393C8.66176 3.19201 7.46853 1.99878 5.9966 1.99878C4.52468 1.99878 3.33145 3.19201 3.33145 4.66393C3.33145 6.13586 4.52468 7.32909 5.9966 7.32909Z" stroke="currentColor" stroke-width="1.33258" stroke-linecap="round" stroke-linejoin="round"/>
</g>
<defs>
<clipPath id="clip0_245_6115">
<rect width="15.9909" height="15.9909" fill="white"/>
</clipPath>
</defs>
</svg>
