<svg width="16" height="16" viewBox="0 0 16 16" fill="none" xmlns="http://www.w3.org/2000/svg">
<g clip-path="url(#clip0_51_351)">
<path d="M7.34057 1.87495C7.36912 1.7221 7.45023 1.58406 7.56984 1.48471C7.68945 1.38537 7.84005 1.33099 7.99553 1.33099C8.15102 1.33099 8.30161 1.38537 8.42123 1.48471C8.54084 1.58406 8.62195 1.7221 8.65049 1.87495L9.35076 5.57818C9.4005 5.84146 9.52845 6.08364 9.71791 6.2731C9.90737 6.46256 10.1495 6.59051 10.4128 6.64024L14.1161 7.34051C14.2689 7.36906 14.4069 7.45016 14.5063 7.56978C14.6056 7.68939 14.66 7.83998 14.66 7.99547C14.66 8.15096 14.6056 8.30155 14.5063 8.42117C14.4069 8.54078 14.2689 8.62189 14.1161 8.65043L10.4128 9.3507C10.1495 9.40044 9.90737 9.52839 9.71791 9.71785C9.52845 9.90731 9.4005 10.1495 9.35076 10.4128L8.65049 14.116C8.62195 14.2688 8.54084 14.4069 8.42123 14.5062C8.30161 14.6056 8.15102 14.6599 7.99553 14.6599C7.84005 14.6599 7.68945 14.6056 7.56984 14.5062C7.45023 14.4069 7.36912 14.2688 7.34057 14.116L6.6403 10.4128C6.59057 10.1495 6.46262 9.90731 6.27316 9.71785C6.0837 9.52839 5.84152 9.40044 5.57824 9.3507L1.87501 8.65043C1.72216 8.62189 1.58412 8.54078 1.48478 8.42117C1.38543 8.30155 1.33105 8.15096 1.33105 7.99547C1.33105 7.83998 1.38543 7.68939 1.48478 7.56978C1.58412 7.45016 1.72216 7.36906 1.87501 7.34051L5.57824 6.64024C5.84152 6.59051 6.0837 6.46256 6.27316 6.2731C6.46262 6.08364 6.59057 5.84146 6.6403 5.57818L7.34057 1.87495Z" stroke="#FF6129" stroke-width="1.33258" stroke-linecap="round" stroke-linejoin="round"/>
<path d="M13.3257 1.33258V3.99773" stroke="#FF6129" stroke-width="1.33258" stroke-linecap="round" stroke-linejoin="round"/>
<path d="M14.6583 2.66516H11.9932" stroke="#FF6129" stroke-width="1.33258" stroke-linecap="round" stroke-linejoin="round"/>
<path d="M2.6651 14.6583C3.40106 14.6583 3.99767 14.0617 3.99767 13.3257C3.99767 12.5898 3.40106 11.9932 2.6651 11.9932C1.92913 11.9932 1.33252 12.5898 1.33252 13.3257C1.33252 14.0617 1.92913 14.6583 2.6651 14.6583Z" stroke="#FF6129" stroke-width="1.33258" stroke-linecap="round" stroke-linejoin="round"/>
</g>
<defs>
<clipPath id="clip0_51_351">
<rect width="15.9909" height="15.9909" fill="white"/>
</clipPath>
</defs>
</svg>
