<svg width="32" height="32" viewBox="0 0 32 32" fill="none" xmlns="http://www.w3.org/2000/svg">
<path d="M15.3665 3.06018C15.4249 2.94213 15.5152 2.84276 15.6271 2.77328C15.739 2.70381 15.8681 2.66699 15.9998 2.66699C16.1315 2.66699 16.2606 2.70381 16.3725 2.77328C16.4844 2.84276 16.5747 2.94213 16.6331 3.06018L19.7131 9.29885C19.916 9.70947 20.2155 10.0647 20.586 10.3341C20.9564 10.6035 21.3866 10.779 21.8398 10.8455L28.7278 11.8535C28.8583 11.8724 28.9809 11.9275 29.0818 12.0124C29.1826 12.0974 29.2577 12.2089 29.2985 12.3343C29.3393 12.4597 29.3442 12.5941 29.3126 12.7221C29.281 12.8501 29.2142 12.9668 29.1198 13.0589L24.1385 17.9095C23.8099 18.2297 23.5642 18.6248 23.4222 19.061C23.2803 19.4972 23.2465 19.9614 23.3238 20.4135L24.4998 27.2669C24.5228 27.3973 24.5087 27.5316 24.4591 27.6544C24.4095 27.7773 24.3264 27.8837 24.2192 27.9615C24.112 28.0394 23.9851 28.0855 23.8529 28.0947C23.7208 28.1039 23.5887 28.0758 23.4718 28.0135L17.3145 24.7762C16.9088 24.5632 16.4574 24.4519 15.9991 24.4519C15.5409 24.4519 15.0895 24.5632 14.6838 24.7762L8.52779 28.0135C8.4109 28.0754 8.27899 28.1032 8.14706 28.0939C8.01514 28.0845 7.88849 28.0383 7.78152 27.9605C7.67456 27.8827 7.59157 27.7764 7.542 27.6538C7.49243 27.5312 7.47827 27.3971 7.50113 27.2669L8.67579 20.4149C8.75339 19.9625 8.71977 19.498 8.57785 19.0616C8.43592 18.6251 8.18994 18.2297 7.86113 17.9095L2.8798 13.0602C2.78459 12.9682 2.71712 12.8514 2.68508 12.7229C2.65304 12.5945 2.65771 12.4597 2.69857 12.3338C2.73942 12.2079 2.81482 12.096 2.91616 12.0108C3.01751 11.9257 3.14073 11.8707 3.2718 11.8522L10.1585 10.8455C10.6121 10.7795 11.043 10.6043 11.4139 10.3348C11.7848 10.0654 12.0847 9.70988 12.2878 9.29885L15.3665 3.06018Z" stroke="#CCCCCC" stroke-width="1.33258" stroke-linecap="round" stroke-linejoin="round"/>
</svg>
