<svg width="113" height="43" viewBox="0 0 113 43" fill="none" xmlns="http://www.w3.org/2000/svg">
<path d="M17.4829 15.415V25.0459C17.4829 25.5372 17.1378 25.7829 15.891 25.7829C14.6442 25.7829 14.299 25.5372 14.299 25.0459V15.415H11.9223V12.5397H14.299V10.1836C14.299 8.19602 15.4011 6.93982 17.2881 6.93982H19.687C20.2269 6.93982 20.444 7.25806 20.444 8.36351C20.444 9.46898 20.2213 9.78721 19.687 9.78721H18.0728C17.6331 9.78721 17.4829 9.98263 17.4829 10.8424V12.5397H19.9096C20.4495 12.5397 20.6666 12.8579 20.6666 13.9634C20.6666 15.0688 20.444 15.415 19.9096 15.415H17.4829Z" fill="#FF6129" stroke="#FF6129" stroke-width="0.999839" stroke-miterlimit="10"/>
<path d="M21.3234 18.9548C21.3234 15.1973 23.8448 11.9535 27.9636 11.9535C32.0825 11.9535 34.6762 15.1973 34.6762 18.9548C34.6762 22.7122 32.1048 25.8835 27.9636 25.8835C23.8225 25.8835 21.3234 22.7401 21.3234 18.9548ZM31.4646 18.9548C31.4646 16.7941 30.1176 14.8288 27.9636 14.8288C25.8096 14.8288 24.5349 16.7941 24.5349 18.9548C24.5349 21.1155 25.8597 23.0583 27.9636 23.0583C30.0675 23.0583 31.4646 21.1434 31.4646 18.9548Z" fill="#FF6129" stroke="#FF6129" stroke-width="0.999839" stroke-miterlimit="10"/>
<path d="M36.463 18.9548C36.463 15.1973 38.9843 11.9535 43.1032 11.9535C47.222 11.9535 49.8158 15.1973 49.8158 18.9548C49.8158 22.7122 47.2443 25.8835 43.1032 25.8835C38.9621 25.8835 36.463 22.7401 36.463 18.9548ZM46.6042 18.9548C46.6042 16.7941 45.2572 14.8288 43.1032 14.8288C40.9492 14.8288 39.6745 16.7941 39.6745 18.9548C39.6745 21.1155 40.9993 23.0583 43.1032 23.0583C45.2071 23.0583 46.6042 21.1434 46.6042 18.9548Z" fill="#FF6129" stroke="#FF6129" stroke-width="0.999839" stroke-miterlimit="10"/>
<path d="M61.4655 25.0459V24.3313C60.4859 25.3139 59.2113 25.8778 57.4746 25.8778C54.0682 25.8778 51.5969 22.7848 51.5969 18.9269C51.5969 15.0688 53.8734 11.9479 57.9144 11.9479C59.2113 11.9479 60.6806 12.6123 61.4432 13.3716V6.6886H64.6492V25.0403C64.6492 25.5316 64.382 25.7773 63.0573 25.7773C61.7326 25.7773 61.4655 25.5316 61.4655 25.0403V25.0459ZM58.1092 14.8288C56.1499 14.8288 54.8253 16.5261 54.8253 18.9324C54.8253 21.3387 56.2445 23.0081 58.1092 23.0081C59.3115 23.0081 61.4377 22.1985 61.4655 19.0552C61.4878 15.7891 59.4839 14.8288 58.1092 14.8288Z" fill="#FF6129" stroke="#FF6129" stroke-width="0.999839" stroke-miterlimit="10"/>
<path d="M69.4472 6.49878C70.5492 6.49878 71.4286 7.38092 71.4286 8.46404C71.4286 9.54717 70.5492 10.4516 69.4472 10.4516C68.345 10.4516 67.4656 9.5695 67.4656 8.46404C67.4656 7.35858 68.345 6.49878 69.4472 6.49878ZM67.7829 12.026H71.0891V25.0459C71.0891 25.5372 70.6716 25.7829 69.4249 25.7829C68.1781 25.7829 67.7829 25.5372 67.7829 25.0459V12.026Z" fill="#FF6129" stroke="#FF6129" stroke-width="0.999839" stroke-miterlimit="10"/>
<path d="M82.5773 16.5707C82.5773 15.3425 81.4252 14.8009 79.978 14.8009C78.7534 14.8009 77.4066 15.4653 77.4066 16.1297V25.046C77.4066 25.5372 77.0614 25.7829 75.8146 25.7829C74.5678 25.7829 74.2227 25.5372 74.2227 25.046V12.2941H77.3342V13.1539C78.0689 12.4393 79.2433 11.9479 80.8853 11.9479C83.7518 11.9479 85.7611 13.8629 85.7611 16.688V25.0404C85.7611 25.5316 85.4159 25.7773 84.1693 25.7773C82.9225 25.7773 82.5773 25.5316 82.5773 25.0404V16.5652V16.5707Z" fill="#FF6129" stroke="#FF6129" stroke-width="0.999839" stroke-miterlimit="10"/>
<path d="M94.5275 28.8313C96.9543 28.8313 97.7613 27.0112 97.856 24.7556C96.9487 25.4926 95.5294 25.8835 94.3272 25.8835C90.2862 25.8835 88.0097 22.6396 88.0097 18.9325C88.0097 14.8791 90.6091 11.9535 94.0099 11.9535C95.624 11.9535 96.8986 12.5175 97.856 13.5279V12.2997H101.068V24.9287C101.068 28.5634 99.2308 31.6843 94.8448 31.6843H91.071C90.5089 31.6843 90.264 31.3884 90.264 30.2606C90.264 29.1328 90.5089 28.8369 91.071 28.8369H94.5275V28.8313ZM94.5275 14.8288C92.4959 14.8288 91.2436 16.6713 91.2436 18.9325C91.2436 21.1936 92.5405 23.036 94.5275 23.036C96.5147 23.036 97.8838 21.6124 97.8838 18.8096C97.8838 16.4033 96.4145 14.8288 94.5275 14.8288Z" fill="#FF6129" stroke="#FF6129" stroke-width="0.999839" stroke-miterlimit="10"/>
<path d="M51.2185 36.4913C40.9436 36.4913 36.8414 31.969 36.6745 31.7792C35.9675 30.9752 36.0288 29.7413 36.8135 29.0211C37.5929 28.3065 38.7896 28.3623 39.4964 29.1495C39.5855 29.2445 42.875 32.5887 51.2185 32.5887C58.3373 32.5887 62.6121 28.4125 62.6511 28.3734C63.4024 27.6253 64.6103 27.6309 65.3505 28.4013C66.0853 29.1663 66.0853 30.4001 65.3394 31.1538C65.1223 31.3716 59.9682 36.5025 51.2185 36.5025V36.4913Z" fill="#FF6129"/>
</svg>
